<svg width="147" height="36" viewBox="0 0 147 36" fill="none" xmlns="http://www.w3.org/2000/svg">
<path d="M10.666 33.7693L7.125 27.6362L12.3216 18.6602L15.6238 24.3801L35.1174 24.3697L29.586 33.854L10.666 33.7693Z" fill="#FFAD64"/>
<path d="M38.6004 18.2805L35.0595 24.4135L24.6877 24.4013L27.9902 18.6814L18.2344 1.80469L29.2137 1.85286L38.6004 18.2805Z" fill="#ADD4D3"/>
<path d="M11.2131 1.77148H18.295L23.4702 10.76L16.8653 10.7596L7.1277 27.6469L1.67969 18.1144L11.2131 1.77148Z" fill="#FB8351"/>
<path fill-rule="evenodd" clip-rule="evenodd" d="M19.1608 0.351088L19.1396 0.314453H10.3788L0 18.1067L7.12447 30.5725L7.13322 30.5573L9.82656 35.2223L30.4244 35.3145L37.6579 22.9115H37.6098L40.2819 18.2833L30.0628 0.398916L19.1608 0.351088ZM25.9378 12.2163H25.9924L20.8425 3.27201L28.3678 3.30501L36.922 18.2758L34.2446 22.9135L27.2278 22.9172L29.6742 18.68L25.9378 12.2163ZM17.3767 3.22791L20.8882 9.3027L16.0262 9.30259L7.70244 23.7377L7.13465 24.7185L3.3643 18.1215L12.0522 3.22791H17.3767ZM14.0005 18.648L17.7093 12.2161L22.5726 12.2163L26.3095 18.6809L23.8625 22.919L16.4685 22.923L14.0005 18.648ZM8.81426 27.642L10.2252 25.1951L12.3235 21.5706L14.7867 25.8374L22.1796 25.8334L22.1677 25.8541L32.5618 25.8664L28.7551 32.3935L11.513 32.3164L8.81426 27.642Z" fill="#333237"/>
<path d="M93.3447 10.9752C94.3424 10.9752 95.1529 10.1645 95.1529 9.14616C95.1529 8.1277 94.3424 7.33789 93.3447 7.33789C92.3263 7.33789 91.5156 8.1277 91.5156 9.14616C91.5156 10.1645 92.3263 10.9752 93.3447 10.9752ZM91.7235 22.9886H94.9451V12.5964H91.7235V22.9886Z" fill="#FB8351"/>
<path d="M96.8164 27.9769H99.9757V21.9493C100.578 22.7392 101.95 23.2795 103.384 23.2795C106.481 23.2795 108.352 20.9101 108.269 17.6261C108.185 14.2798 106.253 12.2637 103.364 12.2637C101.888 12.2637 100.495 12.908 99.9134 13.8641L99.7471 12.5963H96.8164V27.9769ZM100.038 17.7924C100.038 16.2336 101.077 15.1944 102.574 15.1944C104.091 15.1944 105.047 16.2544 105.047 17.7924C105.047 19.3304 104.091 20.3905 102.574 20.3905C101.077 20.3905 100.038 19.3512 100.038 17.7924Z" fill="#FB8351"/>
<path d="M108.609 19.7046C108.692 21.8038 110.356 23.2587 112.974 23.2587C115.489 23.2587 117.235 21.9285 117.235 19.7877C117.235 18.2496 116.321 17.2313 114.616 16.8155L112.766 16.3582C112.101 16.192 111.685 16.0257 111.685 15.4853C111.685 14.945 112.122 14.5916 112.766 14.5916C113.493 14.5916 113.971 15.0696 113.951 15.7763H116.84C116.757 13.6147 115.114 12.2637 112.828 12.2637C110.521 12.2637 108.797 13.6355 108.797 15.7139C108.797 17.1065 109.565 18.2496 111.623 18.7901L113.452 19.2681C113.992 19.4136 114.221 19.663 114.221 20.0163C114.221 20.5359 113.743 20.8685 112.933 20.8685C111.997 20.8685 111.499 20.4321 111.499 19.7046H108.609Z" fill="#FB8351"/>
<path d="M122.137 23.2581C123.404 23.2581 124.673 22.6762 125.317 21.8241L125.525 22.9879H128.539V12.5957H125.338V17.9996C125.338 19.5585 124.881 20.4107 123.404 20.4107C122.261 20.4107 121.513 19.8911 121.513 17.9581V12.5957H118.312V19.122C118.312 21.5954 119.684 23.2581 122.137 23.2581Z" fill="#FB8351"/>
<path d="M133.616 22.9897V17.3156C133.616 15.5697 134.551 15.0709 135.466 15.0709C136.485 15.0709 137.15 15.6944 137.15 16.9831V22.9897H140.308V17.3156C140.308 15.5489 141.223 15.0501 142.137 15.0501C143.156 15.0501 143.842 15.6736 143.842 16.9831V22.9897H146.959V16.1932C146.959 13.8238 145.713 12.2441 143.031 12.2441C141.535 12.2441 140.308 12.9716 139.768 14.094C139.145 12.9716 138.065 12.2441 136.339 12.2441C135.196 12.2441 134.135 12.7638 133.513 13.5951L133.387 12.5975H130.395V22.9897H133.616Z" fill="#FB8351"/>
<path d="M49.4438 7.60938H46.0352V22.99H55.4714V19.9762H49.4438V7.60938Z" fill="#333237"/>
<path d="M55.7969 17.7743C55.7969 21.0582 58.0001 23.2407 61.3256 23.2407C64.6304 23.2407 66.8335 21.0582 66.8335 17.7743C66.8335 14.4903 64.6304 12.2871 61.3256 12.2871C58.0001 12.2871 55.7969 14.4903 55.7969 17.7743ZM59.0185 17.7535C59.0185 16.1946 59.933 15.1554 61.3256 15.1554C62.6974 15.1554 63.6119 16.1946 63.6119 17.7535C63.6119 19.3332 62.6974 20.3723 61.3256 20.3723C59.933 20.3723 59.0185 19.3332 59.0185 17.7535Z" fill="#333237"/>
<path d="M67.3501 17.6084C67.3501 20.747 69.3871 22.8669 72.2761 22.8669C73.6686 22.8669 74.8742 22.3682 75.4769 21.5575V22.9917C75.4769 24.4259 74.5832 25.3819 73.0035 25.3819C71.5902 25.3819 70.6133 24.7168 70.5509 23.532H67.3086C67.5995 26.3796 69.8027 28.2918 72.8165 28.2918C76.3706 28.2918 78.6153 25.9847 78.6153 22.3266V12.5994H75.7263L75.5601 13.6595C74.978 12.8072 73.7518 12.2461 72.3384 12.2461C69.4285 12.2461 67.3501 14.4284 67.3501 17.6084ZM70.5925 17.5254C70.5925 16.0288 71.5902 15.0312 72.858 15.0312C74.3337 15.0312 75.4145 16.008 75.4145 17.5254C75.4145 19.0426 74.3545 20.0818 72.8788 20.0818C71.611 20.0818 70.5925 19.0426 70.5925 17.5254Z" fill="#333237"/>
<path d="M79.5508 17.7743C79.5508 21.0582 81.7539 23.2407 85.0795 23.2407C88.3842 23.2407 90.5874 21.0582 90.5874 17.7743C90.5874 14.4903 88.3842 12.2871 85.0795 12.2871C81.7539 12.2871 79.5508 14.4903 79.5508 17.7743ZM82.7724 17.7535C82.7724 16.1946 83.6869 15.1554 85.0795 15.1554C86.4513 15.1554 87.3658 16.1946 87.3658 17.7535C87.3658 19.3332 86.4513 20.3723 85.0795 20.3723C83.6869 20.3723 82.7724 19.3332 82.7724 17.7535Z" fill="#333237"/>
</svg>
