<svg width="149" height="36" viewBox="0 0 149 36" fill="none" xmlns="http://www.w3.org/2000/svg">
<path d="M45.478 24.8138H55.936V21.6638H49.195V9.79883H45.478V24.8138Z" fill="#340E0E"/>
<path d="M62.129 22.7136C60.638 22.7136 59.861 21.4116 59.861 19.4586C59.861 17.5056 60.638 16.1826 62.129 16.1826C63.62 16.1826 64.418 17.5056 64.418 19.4586C64.418 21.4116 63.62 22.7136 62.129 22.7136ZM62.15 25.1496C65.615 25.1496 67.883 22.6926 67.883 19.4586C67.883 16.2246 65.615 13.7676 62.15 13.7676C58.706 13.7676 56.396 16.2246 56.396 19.4586C56.396 22.6926 58.706 25.1496 62.15 25.1496Z" fill="#340E0E"/>
<path d="M73.8809 28.5321C75.4769 28.5321 76.8839 28.1751 77.8289 27.3351C78.6899 26.5581 79.2569 25.3821 79.2569 23.7651V14.063H75.9809V15.218H75.9389C75.3089 14.315 74.3429 13.748 72.9149 13.748C70.2479 13.748 68.3999 15.974 68.3999 19.1241C68.3999 22.4211 70.6469 24.2271 73.0619 24.2271C74.3639 24.2271 75.1829 23.7021 75.8129 22.9881H75.8969V24.0591C75.8969 25.3611 75.2879 26.1171 73.8389 26.1171C72.7049 26.1171 72.1379 25.6341 71.9489 25.0671H68.6309C68.9669 27.3141 70.9199 28.5321 73.8809 28.5321ZM73.8599 21.6861C72.5789 21.6861 71.7389 20.6361 71.7389 19.0191C71.7389 17.381 72.5789 16.331 73.8599 16.331C75.2879 16.331 76.0439 17.549 76.0439 18.9981C76.0439 20.5101 75.3509 21.6861 73.8599 21.6861Z" fill="#340E0E"/>
<path d="M85.9923 22.7136C84.5013 22.7136 83.7243 21.4116 83.7243 19.4586C83.7243 17.5056 84.5013 16.1826 85.9923 16.1826C87.4833 16.1826 88.2813 17.5056 88.2813 19.4586C88.2813 21.4116 87.4833 22.7136 85.9923 22.7136ZM86.0133 25.1496C89.4783 25.1496 91.7463 22.6926 91.7463 19.4586C91.7463 16.2246 89.4783 13.7676 86.0133 13.7676C82.5693 13.7676 80.2593 16.2246 80.2593 19.4586C80.2593 22.6926 82.5693 25.1496 86.0133 25.1496Z" fill="#340E0E"/>
<path d="M92.7476 24.8138H96.1706V14.0618H92.7476V24.8138ZM92.7476 12.5708H96.1706V9.79883H92.7476V12.5708Z" fill="#340E0E"/>
<path d="M97.6577 28.3641H101.081V23.7021H101.123C101.795 24.6051 102.782 25.1511 104.168 25.1511C106.982 25.1511 108.851 22.9251 108.851 19.4391C108.851 16.205 107.108 13.748 104.252 13.748C102.782 13.748 101.732 14.399 100.997 15.365H100.934V14.063H97.6577V28.3641ZM103.286 22.5051C101.816 22.5051 100.976 21.3081 100.976 19.5651C100.976 17.8221 101.732 16.499 103.223 16.499C104.693 16.499 105.386 17.7171 105.386 19.5651C105.386 21.3921 104.588 22.5051 103.286 22.5051Z" fill="#340E0E"/>
<path d="M114.422 25.1511C117.236 25.1511 119.315 23.9331 119.315 21.5811C119.315 18.8301 117.089 18.3471 115.199 18.0321C113.834 17.78 112.616 17.6751 112.616 16.919C112.616 16.247 113.267 15.932 114.107 15.932C115.052 15.932 115.703 16.226 115.829 17.1921H118.979C118.811 15.071 117.173 13.748 114.128 13.748C111.587 13.748 109.487 14.924 109.487 17.1921C109.487 19.7121 111.482 20.2161 113.351 20.5311C114.779 20.7831 116.081 20.8881 116.081 21.8541C116.081 22.5471 115.43 22.9251 114.401 22.9251C113.267 22.9251 112.553 22.4001 112.427 21.3291H109.193C109.298 23.7021 111.272 25.1511 114.422 25.1511Z" fill="#340E0E"/>
<path d="M123.965 25.1276C125.456 25.1276 126.401 24.5396 127.178 23.4896H127.241V24.8126H130.517V14.0605H127.094V20.0666C127.094 21.3476 126.38 22.2296 125.204 22.2296C124.112 22.2296 123.587 21.5786 123.587 20.4026V14.0605H120.185V21.1166C120.185 23.5106 121.487 25.1276 123.965 25.1276Z" fill="#340E0E"/>
<path d="M132.005 24.8151H135.428V18.7881C135.428 17.507 136.058 16.604 137.129 16.604C138.158 16.604 138.641 17.276 138.641 18.431V24.8151H142.064V18.7881C142.064 17.507 142.673 16.604 143.765 16.604C144.794 16.604 145.277 17.276 145.277 18.431V24.8151H148.7V17.8221C148.7 15.407 147.482 13.748 145.046 13.748C143.66 13.748 142.505 14.336 141.665 15.638H141.623C141.077 14.483 140.006 13.748 138.599 13.748C137.045 13.748 136.016 14.483 135.344 15.596H135.281V14.063H132.005V24.8151Z" fill="#340E0E"/>
<path fill-rule="evenodd" clip-rule="evenodd" d="M18.1968 35.3145C27.8618 35.3145 35.6968 27.4794 35.6968 17.8144C35.6968 8.14948 27.8618 0.314453 18.1968 0.314453C8.53179 0.314453 0.696777 8.14948 0.696777 17.8144C0.696777 27.4794 8.53179 35.3145 18.1968 35.3145ZM23.6562 8.46669C23.9219 7.52275 23.0059 6.96457 22.1693 7.5606L10.4908 15.8803C9.58348 16.5267 9.72619 17.8144 10.7051 17.8144H13.7804V17.7906H19.774L14.8904 19.5138L12.7374 27.1622C12.4717 28.1062 13.3876 28.6644 14.2243 28.0683L25.9028 19.7486C26.8101 19.1023 26.6673 17.8144 25.6885 17.8144H21.0249L23.6562 8.46669Z" fill="#F15757"/>
</svg>
