<svg width="163" height="36" viewBox="0 0 163 36" fill="none" xmlns="http://www.w3.org/2000/svg">
<path fill-rule="evenodd" clip-rule="evenodd" d="M51.7588 2.51571C51.7588 1.29999 52.7551 0.314453 53.9842 0.314453H57.8609C58.7357 0.314453 59.5835 0.614314 60.2598 1.16299L61.4392 2.11961L61.4687 2.14622C61.4959 2.13714 61.5231 2.12827 61.5504 2.11961C63.678 1.44552 66.2594 1.31733 68.8942 1.31733C71.5289 1.31733 74.1103 1.44552 76.2379 2.11961C76.2652 2.12827 76.2924 2.13714 76.3197 2.14622L76.3492 2.11961L77.5285 1.16299C78.2048 0.614314 79.0526 0.314453 79.9274 0.314453H83.8041C85.0333 0.314453 86.0295 1.29999 86.0295 2.51571V3.87649C86.0295 4.92933 85.5812 5.93347 84.7944 6.64257L83.843 7.50006C83.3785 7.91868 82.8211 8.22333 82.2156 8.38943L81.9905 8.45117C82.8721 10.5319 83.3591 12.7559 83.3591 14.5551C83.3591 21.7926 78.832 24.9183 74.843 27.6725C71.7017 29.8414 68.8942 31.7798 68.8942 35.3145C68.8942 31.7798 66.0866 29.8414 62.9453 27.6725C58.9564 24.9183 54.4292 21.7926 54.4292 14.5551C54.4292 12.7559 54.9162 10.5319 55.7978 8.45117L55.5727 8.38943C54.9672 8.22333 54.4098 7.91868 53.9453 7.50006L52.9939 6.64257C52.2071 5.93347 51.7588 4.92933 51.7588 3.87649V2.51571ZM71.7872 20.472C71.7872 20.8178 71.6347 21.1494 71.3635 21.3939C71.0922 21.6384 70.7243 21.7758 70.3406 21.7758C70.0094 21.7758 69.6899 21.6733 69.4342 21.488C69.8694 22.6404 70.9832 23.7323 72.6773 21.9763C74.1729 20.3447 72.6108 16.9034 71.089 14.8613C70.5818 14.1807 69.749 13.8531 68.8942 13.8531C68.0393 13.8531 67.2065 14.1807 66.6993 14.8613C65.1775 16.9034 63.6155 20.3447 65.111 21.9763C66.8051 23.7323 67.9189 22.6404 68.3541 21.488C68.0984 21.6733 67.7789 21.7758 67.4477 21.7758C67.064 21.7758 66.6961 21.6384 66.4248 21.3939C66.1536 21.1494 66.0012 20.8178 66.0012 20.472H71.7872ZM63.3548 10.2852H59.3251L62.5009 12.8006C63.1998 13.354 64.2212 13.1771 64.6537 12.4276C65.1996 11.4814 64.4745 10.2852 63.3548 10.2852ZM74.4335 10.2852H78.4632L75.2874 12.8006C74.5886 13.354 73.5671 13.1771 73.1347 12.4276C72.5887 11.4814 73.3139 10.2852 74.4335 10.2852Z" fill="#72B800"/>
<path d="M90.833 25.1047H94.403V11.6384H90.833V25.1047ZM90.833 9.53844H94.403V6.33594H90.833V9.53844Z" fill="#355030"/>
<path d="M96.7041 29.5172H100.274V23.5847H100.327C101.088 24.7397 102.322 25.5009 104.212 25.5009C107.677 25.5009 110.039 22.7447 110.039 18.3872C110.039 14.1872 107.755 11.2734 104.185 11.2734C102.348 11.2734 101.088 12.1397 100.222 13.3209H100.143V11.6409H96.7041V29.5172ZM103.45 22.5347C101.324 22.5347 100.195 20.9334 100.195 18.4922C100.195 16.0772 101.088 14.1609 103.319 14.1609C105.524 14.1609 106.417 15.9459 106.417 18.4922C106.417 21.0384 105.262 22.5347 103.45 22.5347Z" fill="#355030"/>
<path d="M117.156 25.5009C120.516 25.5009 122.826 23.8734 122.826 21.1697C122.826 18.0197 120.333 17.3897 118.075 16.9172C116.159 16.5234 114.374 16.4184 114.374 15.2634C114.374 14.2922 115.293 13.7672 116.684 13.7672C118.206 13.7672 119.125 14.2922 119.283 15.7359H122.511C122.249 13.0322 120.28 11.2734 116.736 11.2734C113.665 11.2734 111.25 12.6647 111.25 15.5784C111.25 18.5184 113.613 19.1747 116.028 19.6472C117.865 20.0147 119.571 20.1459 119.571 21.4322C119.571 22.3772 118.679 22.9809 117.104 22.9809C115.503 22.9809 114.4 22.2984 114.164 20.7497H110.856C111.066 23.6109 113.245 25.5009 117.156 25.5009Z" fill="#355030"/>
<path d="M136.386 25.1069V11.6406H132.816V19.4106C132.816 21.1956 131.792 22.4556 130.112 22.4556C128.589 22.4556 127.881 21.5894 127.881 20.0144V11.6406H124.337V20.6181C124.337 23.5581 126.017 25.4744 129.009 25.4744C130.899 25.4744 131.949 24.7656 132.868 23.5319H132.947V25.1069H136.386Z" fill="#355030"/>
<path d="M138.692 25.1072H142.262V17.2847C142.262 15.4997 143.234 14.3447 144.677 14.3447C145.99 14.3447 146.751 15.1322 146.751 16.6547V25.1072H150.321V17.2847C150.321 15.4997 151.24 14.3447 152.736 14.3447C154.049 14.3447 154.81 15.1322 154.81 16.6547V25.1072H158.38V16.0509C158.38 13.1109 156.779 11.2734 153.944 11.2734C152.237 11.2734 150.82 12.1659 149.901 13.6359H149.849C149.192 12.2184 147.827 11.2734 146.121 11.2734C144.257 11.2734 142.945 12.2184 142.21 13.4522H142.131V11.6409H138.692V25.1072Z" fill="#355030"/>
<path d="M0.700195 25.1047H4.27019V6.33594H0.700195V25.1047Z" fill="#355030"/>
<path d="M13.0009 25.5009C17.1746 25.5009 20.0358 22.4034 20.0358 18.3872C20.0358 14.3709 17.1746 11.2734 13.0009 11.2734C8.82707 11.2734 5.96582 14.3709 5.96582 18.3872C5.96582 22.4034 8.82707 25.5009 13.0009 25.5009ZM13.0009 22.7709C10.7959 22.7709 9.58836 21.0122 9.58836 18.3872C9.58836 15.7622 10.7959 13.9772 13.0009 13.9772C15.1796 13.9772 16.4134 15.7622 16.4134 18.3872C16.4134 21.0122 15.1796 22.7709 13.0009 22.7709Z" fill="#355030"/>
<path d="M27.6249 29.7009C29.6199 29.7009 31.3524 29.2284 32.4811 28.1784C33.4786 27.2597 34.0824 25.9734 34.0824 24.0834V11.6409H30.6436V13.0584H30.5911C29.7774 11.9297 28.5436 11.2734 26.8636 11.2734C23.4511 11.2734 21.0361 13.8459 21.0361 17.8622C21.0361 21.9309 23.9761 24.2934 26.9686 24.2934C28.6749 24.2934 29.6986 23.6109 30.4861 22.7184H30.5649V24.1884C30.5649 26.0259 29.5936 26.9972 27.5724 26.9972C25.9186 26.9972 25.1574 26.3409 24.8686 25.5009H21.3249C21.6924 28.1259 23.9499 29.7009 27.6249 29.7009ZM27.5724 21.4322C25.7349 21.4322 24.5274 20.0934 24.5274 17.8097C24.5274 15.5522 25.7349 14.1347 27.5461 14.1347C29.6986 14.1347 30.7486 15.8147 30.7486 17.7834C30.7486 19.7784 29.8299 21.4322 27.5724 21.4322Z" fill="#355030"/>
<path d="M42.7625 25.5009C46.9363 25.5009 49.7975 22.4034 49.7975 18.3872C49.7975 14.3709 46.9363 11.2734 42.7625 11.2734C38.5888 11.2734 35.7275 14.3709 35.7275 18.3872C35.7275 22.4034 38.5888 25.5009 42.7625 25.5009ZM42.7625 22.7709C40.5575 22.7709 39.35 21.0122 39.35 18.3872C39.35 15.7622 40.5575 13.9772 42.7625 13.9772C44.9413 13.9772 46.175 15.7622 46.175 18.3872C46.175 21.0122 44.9413 22.7709 42.7625 22.7709Z" fill="#355030"/>
<path d="M158.216 8.70117C158.216 8.09711 158.705 7.60742 159.31 7.60742H161.497C162.101 7.60742 162.591 8.09711 162.591 8.70117C162.591 9.30519 162.101 9.79493 161.497 9.79493H159.31C158.705 9.79493 158.216 9.30519 158.216 8.70117Z" fill="#355030"/>
</svg>
