<svg width="127" height="36" viewBox="0 0 127 36" fill="none" xmlns="http://www.w3.org/2000/svg">
<path fill-rule="evenodd" clip-rule="evenodd" d="M63.02 4.13398C64.2378 2.91628 66.2122 2.91628 67.43 4.13398C68.6478 5.35178 68.6478 7.32618 67.43 8.54398L60.0055 15.9684C57.8739 13.1116 58.1055 9.04863 60.7003 6.45386L63.02 4.13398Z" fill="#4F9E91"/>
<path fill-rule="evenodd" clip-rule="evenodd" d="M73.6319 20.8824C74.8499 22.1001 74.8499 24.0745 73.6319 25.2922C72.4148 26.51 70.4401 26.51 69.2223 25.2922L61.7979 17.8679C64.6546 15.7363 68.7177 15.9677 71.3124 18.5625L73.6319 20.8824Z" fill="#EBE1C5"/>
<path fill-rule="evenodd" clip-rule="evenodd" d="M56.8828 31.4964C55.6651 32.7142 53.6906 32.7142 52.4729 31.4964C51.2551 30.2786 51.2551 28.3043 52.4729 27.0865L59.8973 19.6621C62.0289 22.5189 61.7974 26.5819 59.2026 29.1766L56.8828 31.4964Z" fill="#EBCC6E"/>
<path fill-rule="evenodd" clip-rule="evenodd" d="M46.2698 14.7471C45.052 13.5293 45.052 11.555 46.2698 10.3372C47.4876 9.11938 49.462 9.11938 50.6798 10.3372L58.1042 17.7616C55.2474 19.8932 51.1843 19.6617 48.5896 17.067L46.2698 14.7471Z" fill="#ED834E"/>
<path fill-rule="evenodd" clip-rule="evenodd" d="M61.3643 30.5879C63.1599 28.5914 63.9945 26.0368 63.8679 23.5215L67.4335 27.0871C67.4424 27.096 67.4513 27.1048 67.4603 27.1137V29.6593C67.4603 31.3815 66.0642 32.7776 64.342 32.7776C62.9431 32.7776 61.7595 31.8566 61.3643 30.5879Z" fill="#ED834E"/>
<path fill-rule="evenodd" clip-rule="evenodd" d="M47.179 19.2246C49.1754 21.0203 51.73 21.8549 54.2453 21.7283L50.6798 25.2939C50.6708 25.3028 50.6619 25.3117 50.6532 25.3206H48.1075C46.3854 25.3207 44.9893 23.9245 44.9893 22.2023C44.9893 20.8036 45.9103 19.6198 47.179 19.2246Z" fill="#4F9E91"/>
<path fill-rule="evenodd" clip-rule="evenodd" d="M72.7273 16.4066C70.7311 14.6109 68.1764 13.7763 65.6611 13.9029L69.2267 10.3373C69.2356 10.3284 69.2444 10.3195 69.2533 10.3105H71.799C73.5214 10.3105 74.9175 11.7067 74.9175 13.4289C74.9175 14.8277 73.9962 16.0114 72.7273 16.4066Z" fill="#EBCC6E"/>
<path fill-rule="evenodd" clip-rule="evenodd" d="M58.5423 5.03941C56.7466 7.03583 55.9121 9.5905 56.0386 12.1059L52.4731 8.54022C52.4641 8.53136 52.4552 8.5225 52.4463 8.51363V5.96798C52.4463 4.2458 53.8424 2.84961 55.5646 2.84961C56.9634 2.84961 58.1471 3.77072 58.5423 5.03941Z" fill="#EBE1C5"/>
<path fill-rule="evenodd" clip-rule="evenodd" d="M55.5672 0.314453C52.4438 0.314453 49.9118 2.84648 49.9118 5.96986V7.0698C48.0327 6.57884 45.9502 7.06954 44.4777 8.54207C42.2691 10.7507 42.2691 14.3315 44.4777 16.5401L45.2554 17.3178C43.5796 18.2994 42.4541 20.1189 42.4541 22.2013C42.4541 25.3246 44.9861 27.8567 48.1095 27.8567H49.2094C48.7184 29.7357 49.2091 31.8182 50.6816 33.2907C52.8902 35.4993 56.471 35.4993 58.6796 33.2907L60.9994 30.9709C63.0458 28.9245 64.0016 26.2004 63.8667 23.521L67.4324 27.0867C69.641 29.2952 73.2219 29.2952 75.4306 27.0867C77.6393 24.8781 77.6393 21.2972 75.4306 19.0888L74.6531 18.3111C76.3283 17.3295 77.4541 15.51 77.4541 13.4276C77.4541 10.3043 74.9216 7.77224 71.7986 7.77224H70.6987C71.1897 5.89308 70.6989 3.81059 69.2264 2.33806C67.0179 0.129476 63.4371 0.129476 61.2285 2.33806L58.9087 4.65791C56.8622 6.70432 55.9065 9.42835 56.0413 12.1077L52.4757 8.54207C52.4667 8.53321 52.4579 8.52434 52.4489 8.51548V5.96986C52.4489 4.24768 53.845 2.85157 55.5672 2.85157C56.966 2.85157 58.1497 3.7726 58.5449 5.04129C58.6621 4.91107 58.7833 4.78322 58.9086 4.65791L60.4507 3.11579C59.4691 1.43994 57.6496 0.314453 55.5672 0.314453ZM69.253 10.3094C69.2441 10.3182 69.2353 10.3272 69.2264 10.336L65.6608 13.9016C68.1762 13.775 70.7308 14.6095 72.727 16.4054C73.9959 16.0101 74.9173 14.8264 74.9173 13.4276C74.9173 11.7055 73.5211 10.3094 71.7986 10.3094H69.253ZM50.655 25.3195C50.6638 25.3106 50.6727 25.3016 50.6816 25.2928L54.2472 21.7271C51.7319 21.8538 49.1773 21.0192 47.1809 19.2235C45.9122 19.6188 44.9911 20.8024 44.9911 22.2013C44.9911 23.9234 46.3873 25.3195 48.1095 25.3195H50.655ZM47.0837 19.1349C46.9869 19.0455 46.8915 18.9538 46.7976 18.8598V18.8599C46.8915 18.9539 46.9869 19.0455 47.0837 19.1349ZM64.3409 35.3145C62.2584 35.3145 60.4389 34.1889 59.4573 32.513L60.9994 30.9709C61.1248 30.8456 61.246 30.7177 61.3631 30.5875C61.7583 31.8562 62.942 32.7773 64.3409 32.7773C66.0631 32.7773 67.4592 31.3812 67.4592 29.659V27.1134C68.19 27.8346 69.0684 28.3166 69.9963 28.559V29.659C69.9963 32.7824 67.4643 35.3145 64.3409 35.3145ZM67.4324 4.13202C66.2146 2.91431 64.2403 2.91431 63.0225 4.13202L60.7026 6.45186C58.1079 9.04663 57.8764 13.1096 60.008 15.9664L67.4324 8.54198C68.6502 7.32419 68.6502 5.34982 67.4324 4.13202ZM73.6361 25.2927C74.8541 24.0749 74.8541 22.1005 73.6361 20.8827L71.3165 18.5629C68.7218 15.9682 64.6587 15.7366 61.8019 17.8682L69.2264 25.2927C70.4442 26.5105 72.419 26.5105 73.6361 25.2927ZM56.8856 31.4967C55.6678 32.7145 53.6934 32.7145 52.4756 31.4967C51.2579 30.2789 51.2579 28.3045 52.4756 27.0867L59.9001 19.6623C62.0317 22.5191 61.8001 26.5822 59.2054 29.1769L56.8856 31.4967ZM46.2717 10.336C45.054 11.5538 45.054 13.5282 46.2717 14.746L48.5915 17.0659C51.1863 19.6605 55.2493 19.8921 58.1061 17.7605L50.6816 10.336C49.4638 9.11833 47.4895 9.11833 46.2717 10.336Z" fill="#3D3A2C"/>
<path d="M0.59082 11.752H3.36425V20.3701H8.12767V22.7047H0.59082V11.752Z" fill="#3D3A2C"/>
<path d="M13.1625 22.9386C12.2328 22.9386 11.418 22.7714 10.7181 22.4372C10.0182 22.0924 9.47501 21.6223 9.08847 21.0269C8.71246 20.421 8.52441 19.7264 8.52441 18.9429C8.52441 18.1594 8.71246 17.47 9.08847 16.8746C9.47501 16.2687 10.0182 15.7986 10.7181 15.4644C11.418 15.1196 12.2328 14.9473 13.1625 14.9473C14.0922 14.9473 14.907 15.1196 15.6069 15.4644C16.3068 15.7986 16.8448 16.2687 17.2208 16.8746C17.6073 17.47 17.8006 18.1594 17.8006 18.9429C17.8006 19.7264 17.6073 20.421 17.2208 21.0269C16.8448 21.6223 16.3068 22.0924 15.6069 22.4372C14.907 22.7714 14.0922 22.9386 13.1625 22.9386ZM13.1625 20.7919C13.7161 20.7919 14.1549 20.63 14.4787 20.3062C14.813 19.9718 14.9801 19.5175 14.9801 18.9429C14.9801 18.3684 14.813 17.9192 14.4787 17.5954C14.1549 17.2611 13.7161 17.094 13.1625 17.094C12.6088 17.094 12.1649 17.2611 11.8307 17.5954C11.5068 17.9192 11.3449 18.3684 11.3449 18.9429C11.3449 19.5175 11.5068 19.9718 11.8307 20.3062C12.1649 20.63 12.6088 20.7919 13.1625 20.7919Z" fill="#3D3A2C"/>
<path d="M22.9821 26.3075C22.4807 26.3075 21.9741 26.2605 21.4622 26.1665C20.9608 26.0724 20.5272 25.9471 20.1617 25.7904V23.8787C20.9869 24.2339 21.927 24.4115 22.9821 24.4115C23.7447 24.4115 24.2931 24.2547 24.6274 23.9414C24.9721 23.628 25.1445 23.1684 25.1445 22.5625V22.1081C24.8416 22.3693 24.4655 22.5729 24.0163 22.7192C23.5775 22.8655 23.1074 22.9386 22.606 22.9386C21.8122 22.9386 21.1123 22.7714 20.5064 22.4372C19.9005 22.1028 19.4252 21.6328 19.0805 21.0269C18.7462 20.421 18.5791 19.7264 18.5791 18.9429C18.5791 18.149 18.7462 17.4491 19.0805 16.8433C19.4147 16.2374 19.8848 15.7725 20.4907 15.4487C21.0966 15.1144 21.7913 14.9473 22.5747 14.9473C23.6507 14.9473 24.5386 15.2763 25.2385 15.9345V15.1823H27.9023V22.1865C27.9023 23.4922 27.5 24.5055 26.6957 25.2263C25.9018 25.9471 24.664 26.3075 22.9821 26.3075ZM23.2955 20.8076C23.7238 20.8076 24.1051 20.6979 24.4393 20.4785C24.7736 20.2591 25.0086 19.9667 25.1445 19.601V18.2848C24.9982 17.9192 24.7579 17.6319 24.4237 17.423C24.0894 17.2037 23.7134 17.094 23.2955 17.094C22.7314 17.094 22.277 17.2611 21.9323 17.5954C21.5875 17.9192 21.4152 18.3631 21.4152 18.9273C21.4152 19.5018 21.5875 19.9614 21.9323 20.3062C22.277 20.6404 22.7314 20.8076 23.2955 20.8076Z" fill="#3D3A2C"/>
<path d="M33.2407 22.9386C32.3109 22.9386 31.4962 22.7714 30.7963 22.4372C30.0964 22.0924 29.5531 21.6223 29.1667 21.0269C28.7906 20.421 28.6025 19.7264 28.6025 18.9429C28.6025 18.1594 28.7906 17.47 29.1667 16.8746C29.5531 16.2687 30.0964 15.7986 30.7963 15.4644C31.4962 15.1196 32.3109 14.9473 33.2407 14.9473C34.1704 14.9473 34.9851 15.1196 35.685 15.4644C36.3849 15.7986 36.9229 16.2687 37.299 16.8746C37.6855 17.47 37.8788 18.1594 37.8788 18.9429C37.8788 19.7264 37.6855 20.421 37.299 21.0269C36.9229 21.6223 36.3849 22.0924 35.685 22.4372C34.9851 22.7714 34.1704 22.9386 33.2407 22.9386ZM33.2407 20.7919C33.7943 20.7919 34.233 20.63 34.5569 20.3062C34.8911 19.9718 35.0583 19.5175 35.0583 18.9429C35.0583 18.3684 34.8911 17.9192 34.5569 17.5954C34.233 17.2611 33.7943 17.094 33.2407 17.094C32.687 17.094 32.243 17.2611 31.9088 17.5954C31.5849 17.9192 31.423 18.3684 31.423 18.9429C31.423 19.5175 31.5849 19.9718 31.9088 20.3062C32.243 20.63 32.687 20.7919 33.2407 20.7919Z" fill="#3D3A2C"/>
<path d="M82.1143 11.752H84.888V22.7047H82.1143V11.752Z" fill="#3D3A2C"/>
<path d="M86.2861 15.1823H88.9501V15.9345C89.6495 15.2763 90.5375 14.9473 91.6134 14.9473C92.397 14.9473 93.0919 15.1144 93.6974 15.4487C94.3038 15.7725 94.7732 16.2374 95.1076 16.8433C95.4419 17.4387 95.6095 18.1334 95.6095 18.9273C95.6095 19.7107 95.4419 20.4106 95.1076 21.0269C94.7732 21.6328 94.3038 22.1028 93.6974 22.4372C93.1025 22.7714 92.4075 22.9386 91.6134 22.9386C91.1123 22.9386 90.6314 22.8602 90.1725 22.7035C89.7232 22.5573 89.3468 22.3536 89.044 22.0924V26.1351H86.2861V15.1823ZM90.8929 20.7919C91.4572 20.7919 91.9117 20.6248 92.2557 20.2905C92.6005 19.9562 92.7734 19.5018 92.7734 18.9273C92.7734 18.3527 92.6005 17.9036 92.2557 17.5797C91.9117 17.2454 91.4572 17.0783 90.8929 17.0783C90.4752 17.0783 90.0988 17.188 89.7645 17.4073C89.4301 17.6163 89.1906 17.9036 89.044 18.2691V19.601C89.1906 19.9667 89.4301 20.2591 89.7645 20.4785C90.0988 20.6874 90.4752 20.7919 90.8929 20.7919Z" fill="#3D3A2C"/>
<path d="M99.7216 22.9386C99.1161 22.9386 98.4843 22.8759 97.8262 22.7505C97.168 22.6357 96.645 22.4685 96.2589 22.2491V20.2278C96.6872 20.4785 97.1987 20.6874 97.7946 20.8546C98.4 21.0112 98.9537 21.0896 99.4557 21.0896C99.8207 21.0896 100.087 21.0634 100.254 21.0112C100.422 20.959 100.505 20.8546 100.505 20.6979C100.505 20.5725 100.448 20.4732 100.333 20.4001C100.229 20.3166 100.03 20.233 99.7374 20.1494C99.4557 20.0555 99.1266 19.9562 98.7502 19.8517C98.1131 19.6637 97.612 19.4704 97.2461 19.2719C96.8802 19.0735 96.6091 18.8227 96.4309 18.5198C96.2537 18.2169 96.165 17.8356 96.165 17.376C96.165 16.5612 96.4836 15.9553 97.1206 15.5584C97.7682 15.1509 98.651 14.9473 99.7689 14.9473C100.312 14.9473 100.882 15.0047 101.477 15.1196C102.083 15.2346 102.537 15.386 102.84 15.5741V17.5641C102.527 17.3551 102.108 17.1827 101.586 17.047C101.075 16.9111 100.594 16.8433 100.145 16.8433C99.79 16.8433 99.5127 16.8798 99.3144 16.9529C99.1161 17.0156 99.0169 17.1305 99.0169 17.2977C99.0169 17.4544 99.1161 17.5745 99.3144 17.658C99.5127 17.7416 99.8681 17.8461 100.38 17.9714C100.714 18.055 100.855 18.0915 100.803 18.0811C101.471 18.2587 101.988 18.4572 102.354 18.6766C102.72 18.8959 102.975 19.1571 103.122 19.46C103.279 19.7525 103.357 20.1286 103.357 20.5882C103.357 21.309 103.044 21.8835 102.417 22.3118C101.8 22.7296 100.902 22.9386 99.7216 22.9386Z" fill="#3D3A2C"/>
<path d="M107.478 22.938C106.444 22.938 105.666 22.6507 105.144 22.0762C104.632 21.5016 104.376 20.7443 104.376 19.8041V15.1816H107.134V19.4907C107.134 20.3578 107.525 20.7912 108.309 20.7912C108.664 20.7912 108.988 20.7077 109.28 20.5405C109.573 20.3734 109.813 20.1279 110.001 19.8041V15.1816H112.759V22.7029H110.096V21.8881C109.772 22.2328 109.379 22.4939 108.92 22.6716C108.461 22.8492 107.98 22.938 107.478 22.938Z" fill="#3D3A2C"/>
<path d="M114.169 15.1823H116.723V15.9971C117.037 15.6629 117.397 15.4069 117.804 15.2293C118.212 15.0412 118.645 14.9473 119.105 14.9473C119.669 14.9473 120.118 15.0308 120.453 15.198C120.798 15.3651 121.074 15.6158 121.283 15.9501C121.596 15.6367 121.978 15.3912 122.427 15.2137C122.876 15.0361 123.331 14.9473 123.79 14.9473C124.782 14.9473 125.488 15.2032 125.906 15.7151C126.323 16.2165 126.532 16.9424 126.532 17.893V22.7035H123.9V18.2848C123.9 17.867 123.821 17.5641 123.664 17.376C123.508 17.188 123.247 17.094 122.882 17.094C122.411 17.094 122.03 17.2611 121.737 17.5954C121.748 17.7729 121.753 18.0446 121.753 18.4101V22.7035H119.121V18.1752C119.121 17.7886 119.053 17.5118 118.917 17.3447C118.781 17.1775 118.541 17.094 118.197 17.094C117.663 17.094 117.204 17.3916 116.817 17.9871V22.7035H114.169V15.1823Z" fill="#3D3A2C"/>
</svg>
