<svg width="124" height="36" viewBox="0 0 124 36" fill="none" xmlns="http://www.w3.org/2000/svg">
<path d="M18.4595 0.314453C16.1614 0.314453 13.8857 0.767153 11.7625 1.64655C9.63927 2.52605 7.71017 3.81505 6.08507 5.44005C4.46007 7.06515 3.17107 8.99425 2.29157 11.1175C1.41217 13.2407 0.959473 15.5164 0.959473 17.8145C0.959473 20.1126 1.41217 22.3883 2.29157 24.5115C3.17107 26.6347 4.46007 28.5638 6.08507 30.1889C7.71017 31.8139 9.63927 33.1029 11.7625 33.9824C13.8857 34.8618 16.1614 35.3145 18.4595 35.3145V26.5645C17.3104 26.5645 16.1726 26.3382 15.111 25.8984C14.0494 25.4587 13.0848 24.8142 12.2723 24.0017C11.4598 23.1892 10.8153 22.2246 10.3756 21.163C9.93577 20.1014 9.70947 18.9636 9.70947 17.8145C9.70947 16.6654 9.93577 15.5276 10.3756 14.466C10.8153 13.4044 11.4598 12.4398 12.2723 11.6273C13.0848 10.8148 14.0494 10.1703 15.111 9.73055C16.1726 9.29075 17.3104 9.06445 18.4595 9.06445V0.314453Z" fill="#0F52FF"/>
<path d="M18.4607 23.6471C21.6824 23.6471 24.294 21.0355 24.294 17.8138C24.294 14.5921 21.6824 11.9805 18.4607 11.9805C15.239 11.9805 12.6274 14.5921 12.6274 17.8138C12.6274 21.0355 15.239 23.6471 18.4607 23.6471Z" fill="#0F52FF"/>
<path d="M0.959473 17.8145C0.959473 20.1126 1.41217 22.3883 2.29157 24.5115C3.17107 26.6347 4.46007 28.5638 6.08507 30.1889C7.71017 31.8139 9.63927 33.1029 11.7625 33.9824C13.8857 34.8618 16.1614 35.3145 18.4595 35.3145C20.7576 35.3145 23.0333 34.8618 25.1565 33.9824C27.2797 33.1029 29.2088 31.8139 30.8339 30.1889C32.4589 28.5638 33.7479 26.6347 34.6274 24.5115C35.5068 22.3883 35.9595 20.1126 35.9595 17.8145H27.2095C27.2095 18.9636 26.9832 20.1014 26.5434 21.163C26.1037 22.2246 25.4592 23.1892 24.6467 24.0017C23.8342 24.8142 22.8696 25.4587 21.808 25.8984C20.7464 26.3382 19.6086 26.5645 18.4595 26.5645C17.3104 26.5645 16.1726 26.3382 15.111 25.8984C14.0494 25.4587 13.0848 24.8142 12.2723 24.0017C11.4598 23.1892 10.8153 22.2246 10.3756 21.163C9.93577 20.1014 9.70947 18.9636 9.70947 17.8145H0.959473Z" fill="#5BD0F4"/>
<path d="M24.2941 17.8139C24.2941 16.2668 23.6795 14.7831 22.5856 13.6891C21.4916 12.5951 20.0079 11.9805 18.4608 11.9805C16.9137 11.9805 15.43 12.5951 14.336 13.6891C13.242 14.7831 12.6274 16.2668 12.6274 17.8139H18.4608H24.2941Z" fill="#5BD0F4"/>
<path d="M45.0978 11.2422H42.9243V23.3172H45.0978V11.2422Z" fill="#0F52FF"/>
<path d="M46.5181 19.0371C46.5181 21.8316 48.4501 23.5566 51.0031 23.5566C53.5561 23.5566 55.4881 21.8316 55.4881 19.0371C55.4881 16.2426 53.5561 14.5176 51.0031 14.5176C48.4501 14.5176 46.5181 16.2426 46.5181 19.0371ZM48.6916 19.0371C48.6916 17.3811 49.6576 16.4151 51.0031 16.4151C52.3486 16.4151 53.3146 17.3811 53.3146 19.0371C53.3146 20.6931 52.3486 21.6591 51.0031 21.6591C49.6576 21.6591 48.6916 20.6931 48.6916 19.0371Z" fill="#0F52FF"/>
<path d="M63.2547 14.7591V15.9148H63.0822C62.5647 15.1731 61.7367 14.5176 60.2532 14.5176C58.2177 14.5176 56.3892 16.2426 56.3892 18.8991C56.3892 21.5556 58.2177 23.2806 60.2532 23.2806C61.7367 23.2806 62.5647 22.6078 63.0477 21.9351H63.2202V22.7631C63.2202 24.4191 62.2542 25.1781 60.8397 25.1781C59.4252 25.1781 58.7007 24.4191 58.4074 23.4358L56.4582 24.2811C56.9067 25.5748 58.2177 27.0066 60.8742 27.0066C63.5997 27.0066 65.3937 25.5748 65.3937 22.8148V14.7591H63.2547ZM60.9087 21.4176C59.5632 21.4176 58.5627 20.4516 58.5627 18.8991C58.5627 17.3466 59.5632 16.3806 60.9087 16.3806C62.2542 16.3806 63.2547 17.3466 63.2547 18.8991C63.2547 20.4516 62.2542 21.4176 60.9087 21.4176Z" fill="#0F52FF"/>
<path d="M66.7993 19.0371C66.7993 21.8316 68.7313 23.5566 71.2843 23.5566C73.8373 23.5566 75.7692 21.8316 75.7692 19.0371C75.7692 16.2426 73.8373 14.5176 71.2843 14.5176C68.7313 14.5176 66.7993 16.2426 66.7993 19.0371ZM68.9728 19.0371C68.9728 17.3811 69.9388 16.4151 71.2843 16.4151C72.6298 16.4151 73.5958 17.3811 73.5958 19.0371C73.5958 20.6931 72.6298 21.6591 71.2843 21.6591C69.9388 21.6591 68.9728 20.6931 68.9728 19.0371Z" fill="#0F52FF"/>
<path d="M77.4751 12.2745C77.4751 13.1543 78.1481 13.758 79.0111 13.758C79.8731 13.758 80.5461 13.1543 80.5461 12.2745C80.5461 11.3948 79.8731 10.791 79.0111 10.791C78.1481 10.791 77.4751 11.3948 77.4751 12.2745ZM80.0971 14.7585H77.9241V23.3145H80.0971V14.7585Z" fill="#5BD0F4"/>
<path d="M82.0337 26.7651H84.2077V22.2111H84.3797C84.8627 22.9011 85.6907 23.5566 87.1747 23.5566C89.2097 23.5566 91.0387 21.8316 91.0387 19.0371C91.0387 16.2426 89.2097 14.5176 87.1747 14.5176C85.6907 14.5176 84.8627 15.1731 84.3457 15.9149H84.1727V14.7591H82.0337V26.7651ZM86.5187 21.6936C85.1737 21.6936 84.1727 20.7276 84.1727 19.0371C84.1727 17.3466 85.1737 16.3806 86.5187 16.3806C87.8647 16.3806 88.8647 17.3466 88.8647 19.0371C88.8647 20.7276 87.8647 21.6936 86.5187 21.6936Z" fill="#5BD0F4"/>
<path d="M92.3095 17.1569C92.3095 18.8474 93.7235 19.4684 95.5175 19.8134L95.9665 19.8996C97.0355 20.1066 97.5185 20.3654 97.5185 20.9174C97.5185 21.4694 97.0355 21.9006 96.0355 21.9006C95.0345 21.9006 94.2245 21.4866 93.9995 20.2446L91.9985 20.7621C92.2925 22.5561 93.7925 23.5566 96.0355 23.5566C98.2085 23.5566 99.6235 22.5389 99.6235 20.7449C99.6235 18.9508 98.1745 18.4679 96.2425 18.0884L95.7935 18.0021C94.8965 17.8296 94.4135 17.5881 94.4135 17.0189C94.4135 16.5014 94.8625 16.1736 95.6905 16.1736C96.5185 16.1736 97.1045 16.5186 97.3115 17.4501L99.2785 16.8464C98.8645 15.4664 97.6055 14.5176 95.6905 14.5176C93.6545 14.5176 92.3095 15.4664 92.3095 17.1569Z" fill="#5BD0F4"/>
<path d="M109.388 23.3138V14.7578H107.215V19.1738C107.215 20.7608 106.439 21.6923 105.11 21.6923C103.937 21.6923 103.282 21.0541 103.282 19.7603V14.7578H101.108V19.8638C101.108 21.9856 102.437 23.4518 104.438 23.4518C106.007 23.4518 106.732 22.7618 107.077 22.0373H107.249V23.3138H109.388Z" fill="#5BD0F4"/>
<path d="M111.311 14.7591V23.3151H113.485V18.2091C113.485 17.0361 114.037 16.3806 115.037 16.3806C115.9 16.3806 116.417 16.8636 116.417 17.7951V23.3151H118.591V18.2091C118.591 17.0361 119.143 16.3806 120.143 16.3806C121.006 16.3806 121.523 16.8636 121.523 17.7951V23.3151H123.697V17.6916C123.697 15.6216 122.42 14.6211 120.833 14.6211C119.436 14.6211 118.798 15.2421 118.384 15.9666H118.211C117.814 15.1559 117.107 14.6211 115.865 14.6211C114.623 14.6211 113.95 15.1731 113.623 15.8286H113.45V14.7591H111.311Z" fill="#5BD0F4"/>
</svg>
